STARTFONT 2.1
COMMENT $XConsortium: luRS18.bdf,v 1.7 94/04/02 16:23:54 gildea Exp $
COMMENT  (c) Copyright Bigelow & Holmes 1986, 1985. Lucida is a registered
COMMENT  trademark of Bigelow & Holmes. See LEGAL NOTICE file for terms 
COMMENT  of the license. 
COMMENT  
COMMENT  Translation to ISO8859-2 by Cub Soft;  Petr.Kolar@vslib.cz
COMMENT  
FONT -B&H-Lucida-Medium-R-Normal-Sans-25-180-100-100-P-142-ISO8859-2
SIZE 18 100 100
FONTBOUNDINGBOX 42 28 -16 -5
STARTPROPERTIES 20
COMMENT Begin LogicalFontDescription
FONTNAME_REGISTRY ""
FOUNDRY "B&H"
FAMILY_NAME "Lucida"
WEIGHT_NAME "Medium"
SLANT "R"
SETWIDTH_NAME "Normal"
ADD_STYLE_NAME "Sans"
PIXEL_SIZE 25
POINT_SIZE 180
RESOLUTION_X 100
RESOLUTION_Y 100
SPACING "P"
AVERAGE_WIDTH 142
CHARSET_REGISTRY "ISO8859"
CHARSET_ENCODING "2"
COMMENT END LogicalFontDescription
FONT_ASCENT 23
FONT_DESCENT 6
DEFAULT_CHAR 0
COPYRIGHT "Copyright Bigelow & Holmes 1986, 1985., Copyright 1996 Cub Soft"
FACE_NAME "Lucida Sans"
ENDPROPERTIES
CHARS 191
STARTCHAR space
ENCODING 32
SWIDTH 316 0
DWIDTH 8 0
BBX 1 1 0 0
BITMAP
00
ENDCHAR
STARTCHAR exclam
ENCODING 33
SWIDTH 205 0
DWIDTH 8 0
BBX 2 18 3 0
BITMAP
c0
c0
c0
c0
c0
c0
c0
c0
c0
c0
c0
c0
c0
00
00
c0
c0
c0
ENDCHAR
STARTCHAR quotedbl
ENCODING 34
SWIDTH 373 0
DWIDTH 9 0
BBX 6 6 2 12
BITMAP
cc
cc
cc
cc
cc
cc
ENDCHAR
STARTCHAR numbersign
ENCODING 35
SWIDTH 633 0
DWIDTH 16 0
BBX 15 18 0 0
BITMAP
0318
0318
0330
0630
0630
7ffe
7ffe
0660
0c60
0c60
0cc0
fffc
fffc
18c0
19c0
1980
3180
3180
ENDCHAR
STARTCHAR dollar
ENCODING 36
SWIDTH 633 0
DWIDTH 16 0
BBX 11 22 2 -2
BITMAP
0600
0600
1fc0
3fe0
7600
6600
6600
6600
3600
3e00
0e00
0780
07c0
06e0
0660
0660
0660
86e0
ffc0
7f80
0600
0600
ENDCHAR
STARTCHAR percent
ENCODING 37
SWIDTH 669 0
DWIDTH 17 0
BBX 17 18 0 0
BITMAP
3c0380
7e0700
e70600
c30c00
c31800
e73800
7e7000
3ce000
00de00
01bf00
03f380
076180
0e6180
0c6180
186180
307380
703f00
e01e00
ENDCHAR
STARTCHAR ampersand
ENCODING 38
SWIDTH 697 0
DWIDTH 17 0
BBX 16 18 1 0
BITMAP
03c0
07e0
0e30
0e30
0e30
0e70
07e0
0fc0
3f87
7387
e1c7
e0e6
e066
e07e
f03c
7838
3fec
0f8f
ENDCHAR
STARTCHAR apostrophe
ENCODING 39
SWIDTH 229 0
DWIDTH 6 0
BBX 3 6 1 12
BITMAP
e0
e0
e0
60
60
c0
ENDCHAR
STARTCHAR parenleft
ENCODING 40
SWIDTH 325 0
DWIDTH 8 0
BBX 6 22 1 -4
BITMAP
04
0c
18
38
30
70
60
e0
e0
e0
e0
e0
e0
e0
e0
60
70
30
38
18
0c
04
ENDCHAR
STARTCHAR parenright
ENCODING 41
SWIDTH 325 0
DWIDTH 8 0
BBX 6 22 1 -4
BITMAP
80
c0
60
70
30
38
18
1c
1c
1c
1c
1c
1c
1c
1c
18
38
30
70
60
c0
80
ENDCHAR
STARTCHAR asterisk
ENCODING 42
SWIDTH 482 0
DWIDTH 12 0
BBX 9 9 2 9
BITMAP
0800
0800
4880
eb80
3600
1400
3600
6200
2300
ENDCHAR
STARTCHAR plus
ENCODING 43
SWIDTH 633 0
DWIDTH 16 0
BBX 14 15 1 0
BITMAP
0300
0300
0300
0300
0300
0300
fffc
fffc
0300
0300
0300
0300
0300
0300
0300
ENDCHAR
STARTCHAR comma
ENCODING 44
SWIDTH 316 0
DWIDTH 8 0
BBX 3 8 2 -5
BITMAP
e0
e0
e0
60
60
60
c0
c0
ENDCHAR
STARTCHAR minus
ENCODING 45
SWIDTH 633 0
DWIDTH 16 0
BBX 14 2 1 6
BITMAP
fffc
fffc
ENDCHAR
STARTCHAR period
ENCODING 46
SWIDTH 316 0
DWIDTH 8 0
BBX 3 3 2 0
BITMAP
e0
e0
e0
ENDCHAR
STARTCHAR slash
ENCODING 47
SWIDTH 494 0
DWIDTH 12 0
BBX 12 22 0 -4
BITMAP
0030
0060
0060
00e0
00c0
01c0
0180
0180
0300
0300
0600
0600
0c00
0c00
1800
1800
3800
3000
7000
6000
6000
c000
ENDCHAR
STARTCHAR zero
ENCODING 48
SWIDTH 633 0
DWIDTH 16 0
BBX 13 18 1 0
BITMAP
0f80
1fc0
38e0
7070
7070
e038
e038
e038
e038
e038
e038
e038
e038
7070
7070
38e0
1fc0
0f80
ENDCHAR
STARTCHAR one
ENCODING 49
SWIDTH 633 0
DWIDTH 16 0
BBX 6 18 3 0
BITMAP
fc
fc
1c
1c
1c
1c
1c
1c
1c
1c
1c
1c
1c
1c
1c
1c
1c
1c
ENDCHAR
STARTCHAR two
ENCODING 50
SWIDTH 633 0
DWIDTH 16 0
BBX 11 18 2 0
BITMAP
3f00
ffc0
c1c0
00e0
00e0
00e0
00e0
01c0
01c0
0380
0f00
1c00
3800
3000
7000
e000
ffe0
ffe0
ENDCHAR
STARTCHAR three
ENCODING 51
SWIDTH 633 0
DWIDTH 16 0
BBX 11 18 2 0
BITMAP
7f00
ffc0
c1e0
00e0
00e0
00e0
00c0
0300
3e00
3f80
03c0
00e0
00e0
00e0
00e0
83c0
ff80
ff00
ENDCHAR
STARTCHAR four
ENCODING 52
SWIDTH 633 0
DWIDTH 16 0
BBX 12 18 2 0
BITMAP
01c0
01c0
03c0
07c0
06c0
0cc0
1cc0
38c0
30c0
60c0
e0c0
fff0
fff0
00c0
00c0
00c0
00c0
00c0
ENDCHAR
STARTCHAR five
ENCODING 53
SWIDTH 633 0
DWIDTH 16 0
BBX 9 18 3 0
BITMAP
ff80
ff80
c000
c000
c000
c000
f800
fe00
0f00
0780
0380
0380
0380
0380
0780
8f00
fe00
fc00
ENDCHAR
STARTCHAR six
ENCODING 54
SWIDTH 633 0
DWIDTH 16 0
BBX 12 18 2 0
BITMAP
0fc0
1fe0
3820
7000
7000
e000
e000
e780
efe0
f8e0
e070
e070
e070
6070
7070
38e0
3fc0
0f80
ENDCHAR
STARTCHAR seven
ENCODING 55
SWIDTH 633 0
DWIDTH 16 0
BBX 12 18 3 0
BITMAP
fff0
fff0
0070
0060
00c0
01c0
0180
0380
0700
0600
0e00
1c00
1c00
3800
3800
3800
7000
7000
ENDCHAR
STARTCHAR eight
ENCODING 56
SWIDTH 633 0
DWIDTH 16 0
BBX 12 18 2 0
BITMAP
0f80
1fc0
38e0
3060
3060
3060
38c0
1f80
1f80
3fc0
73e0
e0f0
e070
e070
e070
70e0
7fc0
1f80
ENDCHAR
STARTCHAR nine
ENCODING 57
SWIDTH 633 0
DWIDTH 16 0
BBX 12 18 2 0
BITMAP
1f00
3fc0
71e0
70e0
e060
e070
e070
e070
f070
71f0
3f70
1e70
0060
00e0
00e0
41c0
7f80
7e00
ENDCHAR
STARTCHAR colon
ENCODING 58
SWIDTH 316 0
DWIDTH 8 0
BBX 3 13 2 0
BITMAP
e0
e0
e0
00
00
00
00
00
00
00
e0
e0
e0
ENDCHAR
STARTCHAR semicolon
ENCODING 59
SWIDTH 316 0
DWIDTH 8 0
BBX 3 18 2 -5
BITMAP
e0
e0
e0
00
00
00
00
00
00
00
00
e0
e0
60
60
60
c0
80
ENDCHAR
STARTCHAR less
ENCODING 60
SWIDTH 633 0
DWIDTH 16 0
BBX 14 15 1 0
BITMAP
0004
001c
007c
01f0
07c0
0f00
3c00
f000
3c00
0f00
07c0
01f0
0078
001c
0004
ENDCHAR
STARTCHAR equal
ENCODING 61
SWIDTH 633 0
DWIDTH 16 0
BBX 14 6 1 4
BITMAP
fffc
fffc
0000
0000
fffc
fffc
ENDCHAR
STARTCHAR greater
ENCODING 62
SWIDTH 633 0
DWIDTH 16 0
BBX 14 15 1 0
BITMAP
8000
e000
7800
3e00
0f80
03c0
00f0
003c
00f0
03c0
0f80
3e00
f800
e000
8000
ENDCHAR
STARTCHAR question
ENCODING 63
SWIDTH 422 0
DWIDTH 11 0
BBX 10 18 0 0
BITMAP
7e00
ff80
83c0
01c0
01c0
01c0
0380
0300
0600
0e00
1c00
1c00
1c00
0000
0000
1c00
1c00
1c00
ENDCHAR
STARTCHAR at
ENCODING 64
SWIDTH 858 0
DWIDTH 21 0
BBX 20 18 3 0
BITMAP
00fe00
03ff80
0f83c0
1c00e0
387e60
30fc30
618430
630c30
c21c30
c61830
c63860
c64ce0
c7cfc0
630700
700000
3c0800
1ff800
07e000
ENDCHAR
STARTCHAR A
ENCODING 65
SWIDTH 690 0
DWIDTH 17 0
BBX 17 18 0 0
BITMAP
01c000
01e000
03e000
03e000
037000
067000
067800
0e3800
0c3800
0c1c00
181c00
1ffe00
3ffe00
300e00
300700
600700
600780
c00380
ENDCHAR
STARTCHAR B
ENCODING 66
SWIDTH 575 0
DWIDTH 14 0
BBX 11 18 2 0
BITMAP
fe00
ff80
e3c0
e1c0
e1c0
e1c0
e380
e300
fe00
ff80
e3c0
e1e0
e0e0
e0e0
e0e0
e1e0
ffc0
ff00
ENDCHAR
STARTCHAR C
ENCODING 67
SWIDTH 692 0
DWIDTH 17 0
BBX 15 18 1 0
BITMAP
03fc
0ffe
3e06
3800
7000
7000
e000
e000
e000
e000
e000
e000
f000
7000
7802
3e0e
1ffe
07f8
ENDCHAR
STARTCHAR D
ENCODING 68
SWIDTH 749 0
DWIDTH 19 0
BBX 15 18 2 0
BITMAP
ffc0
fff0
e078
e03c
e01c
e01e
e00e
e00e
e00e
e00e
e00e
e00e
e00c
e01c
e038
e078
ffe0
ff80
ENDCHAR
STARTCHAR E
ENCODING 69
SWIDTH 542 0
DWIDTH 14 0
BBX 11 18 2 0
BITMAP
ffc0
ffc0
e000
e000
e000
e000
e000
e000
ff80
ff80
e000
e000
e000
e000
e000
e000
ffe0
ffe0
ENDCHAR
STARTCHAR F
ENCODING 70
SWIDTH 536 0
DWIDTH 13 0
BBX 11 18 2 0
BITMAP
ffe0
ffe0
e000
e000
e000
e000
e000
e000
ffc0
ffc0
e000
e000
e000
e000
e000
e000
e000
e000
ENDCHAR
STARTCHAR G
ENCODING 71
SWIDTH 723 0
DWIDTH 18 0
BBX 15 18 1 0
BITMAP
03fc
0ffe
3e06
3800
7000
7000
e000
e000
e000
e000
e00e
e00e
f00e
700e
780e
3e0e
1ffe
07f8
ENDCHAR
STARTCHAR H
ENCODING 72
SWIDTH 735 0
DWIDTH 18 0
BBX 14 18 2 0
BITMAP
e01c
e01c
e01c
e01c
e01c
e01c
e01c
e01c
fffc
fffc
e01c
e01c
e01c
e01c
e01c
e01c
e01c
e01c
ENDCHAR
STARTCHAR I
ENCODING 73
SWIDTH 288 0
DWIDTH 7 0
BBX 3 18 2 0
BITMAP
e0
e0
e0
e0
e0
e0
e0
e0
e0
e0
e0
e0
e0
e0
e0
e0
e0
e0
ENDCHAR
STARTCHAR J
ENCODING 74
SWIDTH 311 0
DWIDTH 8 0
BBX 8 22 -1 -4
BITMAP
07
07
07
07
07
07
07
07
07
07
07
07
07
07
07
07
07
07
07
0e
fc
f8
ENDCHAR
STARTCHAR K
ENCODING 75
SWIDTH 653 0
DWIDTH 16 0
BBX 14 18 2 0
BITMAP
e038
e060
e0e0
e1c0
e180
e300
e700
ee00
fc00
fe00
ef00
e780
e3c0
e1e0
e1e0
e0f0
e078
e03c
ENDCHAR
STARTCHAR L
ENCODING 76
SWIDTH 533 0
DWIDTH 13 0
BBX 11 18 2 0
BITMAP
e000
e000
e000
e000
e000
e000
e000
e000
e000
e000
e000
e000
e000
e000
e000
e000
ffe0
ffe0
ENDCHAR
STARTCHAR M
ENCODING 77
SWIDTH 861 0
DWIDTH 22 0
BBX 17 18 2 0
BITMAP
f00780
f00780
f80780
f80f80
f80f80
dc1f80
dc1b80
dc1b80
ce3380
ce3380
cf3380
c76380
c76380
c7e380
c3c380
c3c380
c3c380
c00380
ENDCHAR
STARTCHAR N
ENCODING 78
SWIDTH 741 0
DWIDTH 19 0
BBX 14 18 2 0
BITMAP
e00c
f00c
f00c
f80c
fc0c
dc0c
de0c
cf0c
c70c
c38c
c3cc
c1ec
c0ec
c0fc
c07c
c03c
c03c
c01c
ENDCHAR
STARTCHAR O
ENCODING 79
SWIDTH 777 0
DWIDTH 19 0
BBX 17 18 1 0
BITMAP
07f000
1ffc00
3c1e00
780f00
700700
700700
e00380
e00380
e00380
e00380
e00380
e00380
700700
700700
780f00
3c1e00
1ffc00
07f000
ENDCHAR
STARTCHAR P
ENCODING 80
SWIDTH 553 0
DWIDTH 14 0
BBX 11 18 2 0
BITMAP
ff80
ffc0
e1e0
e0e0
e0e0
e0e0
e0e0
e1e0
e3c0
ff80
fe00
e000
e000
e000
e000
e000
e000
e000
ENDCHAR
STARTCHAR Q
ENCODING 81
SWIDTH 777 0
DWIDTH 19 0
BBX 19 22 1 -4
BITMAP
07f000
1ffc00
3c1e00
780e00
700700
700700
e00380
e00380
e00380
e00380
e00380
e00380
700780
700700
780f00
3c1e00
1ffc00
07f000
001e00
000fe0
0003c0
0000c0
ENDCHAR
STARTCHAR R
ENCODING 82
SWIDTH 633 0
DWIDTH 16 0
BBX 13 18 2 0
BITMAP
ff00
ffc0
e1e0
e0e0
e0e0
e0e0
e0e0
e1c0
e380
fe00
ff00
e780
e380
e1c0
e1e0
e0f0
e070
e078
ENDCHAR
STARTCHAR S
ENCODING 83
SWIDTH 539 0
DWIDTH 13 0
BBX 11 18 1 0
BITMAP
1f80
7fc0
70c0
e000
e000
e000
f800
7c00
3f00
0f80
03c0
01e0
00e0
00e0
00e0
c1c0
ff80
7f00
ENDCHAR
STARTCHAR T
ENCODING 84
SWIDTH 633 0
DWIDTH 16 0
BBX 15 18 0 0
BITMAP
fffe
fffe
0380
0380
0380
0380
0380
0380
0380
0380
0380
0380
0380
0380
0380
0380
0380
0380
ENDCHAR
STARTCHAR U
ENCODING 85
SWIDTH 693 0
DWIDTH 17 0
BBX 13 18 2 0
BITMAP
e018
e018
e018
e018
e018
e018
e018
e018
e018
e018
e018
e018
e018
e018
f038
7870
3fe0
1fc0
ENDCHAR
STARTCHAR V
ENCODING 86
SWIDTH 654 0
DWIDTH 16 0
BBX 16 18 0 0
BITMAP
e003
e006
7006
7006
780c
380c
381c
1c18
1c18
1e30
0e30
0e30
0f60
0760
07e0
03c0
03c0
0380
ENDCHAR
STARTCHAR W
ENCODING 87
SWIDTH 855 0
DWIDTH 21 0
BBX 21 18 0 0
BITMAP
e07018
e07038
e07830
70f830
70f830
70f860
70dc60
38dc60
399c60
399cc0
399ec0
1d8ec0
1f0ec0
1f0f80
1f0f80
0f0780
0f0700
0e0700
ENDCHAR
STARTCHAR X
ENCODING 88
SWIDTH 626 0
DWIDTH 16 0
BBX 15 18 0 0
BITMAP
f00e
781c
3818
3c30
1e70
0e60
0fc0
07c0
0380
03c0
07c0
0fe0
0cf0
1870
3878
303c
601c
e01e
ENDCHAR
STARTCHAR Y
ENCODING 89
SWIDTH 623 0
DWIDTH 16 0
BBX 15 18 0 0
BITMAP
e00e
700c
7818
3818
3c30
1c70
1e60
0fe0
07c0
0780
0380
0380
0380
0380
0380
0380
0380
0380
ENDCHAR
STARTCHAR Z
ENCODING 90
SWIDTH 605 0
DWIDTH 15 0
BBX 13 18 1 0
BITMAP
7ff8
7ff8
0078
0070
00e0
01e0
03c0
0380
0780
0f00
0e00
1e00
3c00
7800
7000
f000
fff8
fff8
ENDCHAR
STARTCHAR bracketleft
ENCODING 91
SWIDTH 325 0
DWIDTH 8 0
BBX 5 22 2 -4
BITMAP
f8
f8
c0
c0
c0
c0
c0
c0
c0
c0
c0
c0
c0
c0
c0
c0
c0
c0
c0
c0
f8
f8
ENDCHAR
STARTCHAR backslash
ENCODING 92
SWIDTH 494 0
DWIDTH 12 0
BBX 12 22 0 -4
BITMAP
c000
6000
6000
7000
3000
3800
1800
1800
0c00
0c00
0600
0600
0300
0300
0180
0180
01c0
00c0
00e0
0060
0060
0030
ENDCHAR
STARTCHAR bracketright
ENCODING 93
SWIDTH 325 0
DWIDTH 8 0
BBX 5 22 1 -4
BITMAP
f8
f8
18
18
18
18
18
18
18
18
18
18
18
18
18
18
18
18
18
18
f8
f8
ENDCHAR
STARTCHAR asciicircum
ENCODING 94
SWIDTH 633 0
DWIDTH 16 0
BBX 14 15 1 3
BITMAP
0100
0300
0300
0780
0780
0fc0
0cc0
1ce0
1860
3870
3030
3030
6018
6018
c00c
ENDCHAR
STARTCHAR underscore
ENCODING 95
SWIDTH 500 0
DWIDTH 13 0
BBX 10 2 1 -2
BITMAP
ffc0
ffc0
ENDCHAR
STARTCHAR grave
ENCODING 96
SWIDTH 614 0
DWIDTH 15 0
BBX 5 4 5 14
BITMAP
e0
60
30
18
ENDCHAR
STARTCHAR a
ENCODING 97
SWIDTH 552 0
DWIDTH 14 0
BBX 12 13 1 0
BITMAP
1f80
7fc0
41c0
01c0
01c0
1fc0
7fc0
f1c0
e1c0
e1c0
e3c0
7ef0
3c70
ENDCHAR
STARTCHAR b
ENCODING 98
SWIDTH 630 0
DWIDTH 16 0
BBX 12 18 2 0
BITMAP
e000
e000
e000
e000
e000
e780
efe0
f8e0
e0f0
e070
e070
e070
e070
e070
e0e0
f1e0
ffc0
cf80
ENDCHAR
STARTCHAR c
ENCODING 99
SWIDTH 518 0
DWIDTH 13 0
BBX 11 13 1 0
BITMAP
0fe0
3fe0
7820
7000
e000
e000
e000
e000
e000
7000
7820
3fe0
0fc0
ENDCHAR
STARTCHAR d
ENCODING 100
SWIDTH 630 0
DWIDTH 16 0
BBX 12 18 1 0
BITMAP
0070
0070
0070
0070
0070
1e70
3ff0
78f0
7070
e070
e070
e070
e070
e070
f070
71f0
7f70
1e70
ENDCHAR
STARTCHAR e
ENCODING 101
SWIDTH 557 0
DWIDTH 14 0
BBX 11 13 1 0
BITMAP
1f00
3f80
71c0
60e0
e0e0
ffe0
ffe0
e000
e000
7000
7820
3fe0
0fc0
ENDCHAR
STARTCHAR f
ENCODING 102
SWIDTH 367 0
DWIDTH 9 0
BBX 10 20 0 0
BITMAP
07c0
1fc0
1c40
3800
3800
3800
3800
ff00
ff00
3800
3800
3800
3800
3800
3800
3800
3800
3800
3800
3800
ENDCHAR
STARTCHAR g
ENCODING 103
SWIDTH 623 0
DWIDTH 16 0
BBX 12 18 1 -5
BITMAP
1e70
3ff0
78f0
7070
e070
e070
e070
e070
e070
e070
71f0
7f70
1e70
0070
0060
40e0
7fc0
3f80
ENDCHAR
STARTCHAR h
ENCODING 104
SWIDTH 620 0
DWIDTH 16 0
BBX 11 18 2 0
BITMAP
e000
e000
e000
e000
e000
e780
efc0
f8e0
f0e0
e0e0
e0e0
e0e0
e0e0
e0e0
e0e0
e0e0
e0e0
e0e0
ENDCHAR
STARTCHAR i
ENCODING 105
SWIDTH 289 0
DWIDTH 7 0
BBX 3 18 2 0
BITMAP
e0
e0
e0
00
00
e0
e0
e0
e0
e0
e0
e0
e0
e0
e0
e0
e0
e0
ENDCHAR
STARTCHAR j
ENCODING 106
SWIDTH 304 0
DWIDTH 8 0
BBX 8 23 -1 -5
BITMAP
07
07
07
00
00
07
07
07
07
07
07
07
07
07
07
07
07
07
07
07
8e
fe
f8
ENDCHAR
STARTCHAR k
ENCODING 107
SWIDTH 585 0
DWIDTH 15 0
BBX 12 18 2 0
BITMAP
e000
e000
e000
e000
e000
e0e0
e1c0
e380
e700
e600
ec00
fe00
ef00
ef80
e780
e3c0
e1e0
e0f0
ENDCHAR
STARTCHAR l
ENCODING 108
SWIDTH 289 0
DWIDTH 7 0
BBX 3 18 2 0
BITMAP
e0
e0
e0
e0
e0
e0
e0
e0
e0
e0
e0
e0
e0
e0
e0
e0
e0
e0
ENDCHAR
STARTCHAR m
ENCODING 109
SWIDTH 934 0
DWIDTH 23 0
BBX 19 13 2 0
BITMAP
e7c780
efcfc0
f8f9e0
f0f0e0
e0e0e0
e0e0e0
e0e0e0
e0e0e0
e0e0e0
e0e0e0
e0e0e0
e0e0e0
e0e0e0
ENDCHAR
STARTCHAR n
ENCODING 110
SWIDTH 620 0
DWIDTH 16 0
BBX 11 13 2 0
BITMAP
e780
efc0
f8e0
f0e0
e0e0
e0e0
e0e0
e0e0
e0e0
e0e0
e0e0
e0e0
e0e0
ENDCHAR
STARTCHAR o
ENCODING 111
SWIDTH 614 0
DWIDTH 15 0
BBX 13 13 1 0
BITMAP
0f80
3fe0
78f0
7070
e038
e038
e038
e038
e038
7070
78f0
3fe0
0f80
ENDCHAR
STARTCHAR p
ENCODING 112
SWIDTH 630 0
DWIDTH 16 0
BBX 12 18 2 -5
BITMAP
e780
efe0
f8e0
e0f0
e070
e070
e070
e070
e070
e0e0
f1e0
ffc0
e780
e000
e000
e000
e000
e000
ENDCHAR
STARTCHAR q
ENCODING 113
SWIDTH 630 0
DWIDTH 16 0
BBX 12 18 1 -5
BITMAP
1e70
3ff0
78f0
7070
e070
e070
e070
e070
e070
f070
71f0
7f70
1e70
0070
0070
0070
0070
0070
ENDCHAR
STARTCHAR r
ENCODING 114
SWIDTH 409 0
DWIDTH 10 0
BBX 8 13 2 0
BITMAP
e7
ef
f8
f0
e0
e0
e0
e0
e0
e0
e0
e0
e0
ENDCHAR
STARTCHAR s
ENCODING 115
SWIDTH 510 0
DWIDTH 13 0
BBX 9 13 2 0
BITMAP
3f00
7f00
e100
e000
f000
fe00
7f00
1f80
0380
0380
8780
ff00
7e00
ENDCHAR
STARTCHAR t
ENCODING 116
SWIDTH 374 0
DWIDTH 9 0
BBX 8 16 1 0
BITMAP
38
38
38
ff
ff
38
38
38
38
38
38
38
38
38
1f
0f
ENDCHAR
STARTCHAR u
ENCODING 117
SWIDTH 620 0
DWIDTH 16 0
BBX 11 13 2 0
BITMAP
e0e0
e0e0
e0e0
e0e0
e0e0
e0e0
e0e0
e0e0
e0e0
e1e0
e3e0
7ee0
3ce0
ENDCHAR
STARTCHAR v
ENCODING 118
SWIDTH 572 0
DWIDTH 13 0
BBX 13 13 0 0
BITMAP
e038
e030
7030
7060
7860
38e0
38c0
1cc0
1d80
1f80
0f00
0f00
0f00
ENDCHAR
STARTCHAR w
ENCODING 119
SWIDTH 840 0
DWIDTH 19 0
BBX 19 13 0 0
BITMAP
c0e060
60e0c0
60e0c0
61b0c0
61b180
31b180
333980
331b00
1b1b00
1e1b00
1e0e00
1e0e00
0c0e00
ENDCHAR
STARTCHAR x
ENCODING 120
SWIDTH 613 0
DWIDTH 15 0
BBX 13 13 1 0
BITMAP
e038
7070
38e0
1cc0
0dc0
0780
0700
0f80
1d80
18c0
30e0
7070
e038
ENDCHAR
STARTCHAR y
ENCODING 121
SWIDTH 568 0
DWIDTH 13 0
BBX 13 18 0 -5
BITMAP
e018
f030
7030
7070
7860
3860
3cc0
1cc0
1d80
1f80
0f80
0f00
0700
0600
0600
0e00
0c00
1c00
ENDCHAR
STARTCHAR z
ENCODING 122
SWIDTH 573 0
DWIDTH 14 0
BBX 11 13 2 0
BITMAP
ffe0
ffe0
00c0
0180
0300
0700
0e00
1c00
3800
3000
6000
ffe0
ffe0
ENDCHAR
STARTCHAR braceleft
ENCODING 123
SWIDTH 325 0
DWIDTH 8 0
BBX 6 22 0 -4
BITMAP
0c
1c
30
30
30
30
30
30
30
30
e0
e0
30
30
30
30
30
30
30
30
1c
0c
ENDCHAR
STARTCHAR bar
ENCODING 124
SWIDTH 265 0
DWIDTH 7 0
BBX 2 22 2 -4
BITMAP
c0
c0
c0
c0
c0
c0
c0
c0
c0
c0
c0
c0
c0
c0
c0
c0
c0
c0
c0
c0
c0
c0
ENDCHAR
STARTCHAR braceright
ENCODING 125
SWIDTH 325 0
DWIDTH 8 0
BBX 6 22 2 -4
BITMAP
c0
e0
30
30
30
30
30
30
30
30
1c
1c
30
30
30
30
30
30
30
30
e0
c0
ENDCHAR
STARTCHAR asciitilde
ENCODING 126
SWIDTH 633 0
DWIDTH 16 0
BBX 14 6 1 4
BITMAP
380c
7e0c
670c
c398
c1f8
c070
ENDCHAR
STARTCHAR nobreakspace
ENCODING 160
SWIDTH 316 0
DWIDTH 8 0
BBX 1 1 0 0
BITMAP
00
ENDCHAR
STARTCHAR Aogonek
ENCODING 161
SWIDTH 690 0
DWIDTH 17 0
BBX 17 22 0 -4
BITMAP
01c000
01e000
03e000
03e000
037000
067000
067800
0e3800
0c3800
0c1c00
181c00
1ffe00
3ffe00
300e00
300700
600700
600780
c00380
00c000
018000
018000
00e000
ENDCHAR
STARTCHAR breve
ENCODING 162
SWIDTH 614 0
DWIDTH 15 0
BBX 8 4 4 14
BITMAP
c3
c3
7e
3c
ENDCHAR
STARTCHAR Lstroke
ENCODING 163
SWIDTH 533 0
DWIDTH 13 0
BBX 14 18 0 0
BITMAP
1c00
1c00
1c00
1c00
1c00
1c80
1d80
1f80
1e00
7c00
fc00
9c00
1c00
1c00
1c00
1c00
1ffc
1ffc
ENDCHAR
STARTCHAR currency
ENCODING 164
SWIDTH 633 0
DWIDTH 16 0
BBX 15 16 0 1
BITMAP
4004
e00e
77dc
3ff8
1c70
3838
3018
3018
3018
3018
3838
1c70
3ff8
77dc
e00e
4004
ENDCHAR
STARTCHAR Lcaron
ENCODING 165
SWIDTH 533 0
DWIDTH 13 0
BBX 11 20 2 0
BITMAP
0e00
0e00
ee00
e600
e600
ec00
e000
e000
e000
e000
e000
e000
e000
e000
e000
e000
e000
e000
ffe0
ffe0
ENDCHAR
STARTCHAR Sacute
ENCODING 166
SWIDTH 539 0
DWIDTH 13 0
BBX 11 23 1 0
BITMAP
01c0
0180
0300
0600
0000
1f80
7fc0
70c0
e000
e000
e000
f800
7c00
3f00
0f80
03c0
01e0
00e0
00e0
00e0
c1c0
ff80
7f00
ENDCHAR
STARTCHAR section
ENCODING 167
SWIDTH 633 0
DWIDTH 16 0
BBX 11 23 3 -5
BITMAP
1fc0
7fc0
6040
c000
c000
e000
f800
7f00
7f80
c7c0
c1e0
c060
f060
7c60
7fc0
1f80
03c0
00e0
0060
0060
c0e0
ffc0
7f00
ENDCHAR
STARTCHAR diaeresis
ENCODING 168
SWIDTH 614 0
DWIDTH 15 0
BBX 7 2 4 16
BITMAP
c6
c6
ENDCHAR
STARTCHAR Scaron
ENCODING 169
SWIDTH 539 0
DWIDTH 13 0
BBX 11 23 1 0
BITMAP
30c0
1980
0f00
0f00
0000
1f80
7fc0
70c0
e000
e000
e000
f800
7c00
3f00
0f80
03c0
01e0
00e0
00e0
00e0
c1c0
ff80
7f00
ENDCHAR
STARTCHAR Scedilla
ENCODING 170
SWIDTH 539 0
DWIDTH 13 0
BBX 11 23 1 -5
BITMAP
1f80
7fc0
70c0
e000
e000
e000
f800
7c00
3f00
0f80
03c0
01e0
00e0
00e0
00e0
c1c0
ff80
7f00
0600
0400
0300
0300
0e00
ENDCHAR
STARTCHAR Tcaron
ENCODING 171
SWIDTH 633 0
DWIDTH 16 0
BBX 15 23 0 0
BITMAP
0c30
0660
03c0
03c0
0000
fffe
fffe
0380
0380
0380
0380
0380
0380
0380
0380
0380
0380
0380
0380
0380
0380
0380
0380
ENDCHAR
STARTCHAR Zacute
ENCODING 172
SWIDTH 605 0
DWIDTH 15 0
BBX 13 23 1 0
BITMAP
00e0
00c0
0180
0300
0000
7ff8
7ff8
0078
0070
00e0
01e0
03c0
0380
0780
0f00
0e00
1e00
3c00
7800
7000
f000
fff8
fff8
ENDCHAR
STARTCHAR hyphen
ENCODING 173
SWIDTH 325 0
DWIDTH 8 0
BBX 5 2 2 7
BITMAP
f8
f8
ENDCHAR
STARTCHAR Zcaron
ENCODING 174
SWIDTH 605 0
DWIDTH 15 0
BBX 13 23 1 0
BITMAP
1860
0cc0
0780
0780
0000
7ff8
7ff8
0078
0070
00e0
01e0
03c0
0380
0780
0f00
0e00
1e00
3c00
7800
7000
f000
fff8
fff8
ENDCHAR
STARTCHAR Zabovedot
ENCODING 175
SWIDTH 605 0
DWIDTH 15 0
BBX 13 22 1 0
BITMAP
0300
0300
0300
0000
7ff8
7ff8
0078
0070
00e0
01e0
03c0
0380
0780
0f00
0e00
1e00
3c00
7800
7000
f000
fff8
fff8
ENDCHAR
STARTCHAR degree
ENCODING 176
SWIDTH 277 0
DWIDTH 7 0
BBX 4 4 1 14
BITMAP
60
90
90
60
ENDCHAR
STARTCHAR aogonek
ENCODING 177
SWIDTH 552 0
DWIDTH 14 0
BBX 12 17 1 -4
BITMAP
1f80
7fc0
41c0
01c0
01c0
1fc0
7fc0
f1c0
e1c0
e1c0
e3c0
7ef0
3c70
0600
0c00
0c00
0700
ENDCHAR
STARTCHAR ogonek
ENCODING 178
SWIDTH 614 0
DWIDTH 15 0
BBX 4 4 6 -4
BITMAP
60
c0
c0
70
ENDCHAR
STARTCHAR lstroke
ENCODING 179
SWIDTH 289 0
DWIDTH 7 0
BBX 9 18 0 0
BITMAP
1c00
1c00
1c00
1c00
1c00
1c80
1f80
1f00
3c00
fc00
9c00
1c00
1c00
1c00
1c00
1c00
1c00
1c00
ENDCHAR
STARTCHAR acute
ENCODING 180
SWIDTH 614 0
DWIDTH 15 0
BBX 5 4 6 14
BITMAP
38
30
60
c0
ENDCHAR
STARTCHAR lcaron
ENCODING 181
SWIDTH 440 0
DWIDTH 11 0
BBX 7 20 2 0
BITMAP
0e
0e
ee
e6
e6
ec
e0
e0
e0
e0
e0
e0
e0
e0
e0
e0
e0
e0
e0
e0
ENDCHAR
STARTCHAR sacute
ENCODING 182
SWIDTH 510 0
DWIDTH 13 0
BBX 9 18 2 0
BITMAP
0700
0600
0c00
1800
0000
3f00
7f00
e100
e000
f000
fe00
7f00
1f80
0380
0380
8780
ff00
7e00
ENDCHAR
STARTCHAR caron
ENCODING 183
SWIDTH 614 0
DWIDTH 15 0
BBX 8 4 4 14
BITMAP
c3
66
3c
3c
ENDCHAR
STARTCHAR cedilla
ENCODING 184
SWIDTH 614 0
DWIDTH 15 0
BBX 4 5 6 -5
BITMAP
60
40
30
30
e0
ENDCHAR
STARTCHAR scaron
ENCODING 185
SWIDTH 510 0
DWIDTH 13 0
BBX 9 18 2 0
BITMAP
c300
6600
3c00
3c00
0000
3f00
7f00
e100
e000
f000
fe00
7f00
1f80
0380
0380
8780
ff00
7e00
ENDCHAR
STARTCHAR scedilla
ENCODING 186
SWIDTH 510 0
DWIDTH 13 0
BBX 9 18 2 -5
BITMAP
3f00
7f00
e100
e000
f000
fe00
7f00
1f80
0380
0380
8780
ff00
7e00
0c00
0800
0600
0600
1c00
ENDCHAR
STARTCHAR tcaron
ENCODING 187
SWIDTH 400 0
DWIDTH 10 0
BBX 9 20 1 0
BITMAP
0380
0380
0380
0180
3980
3b00
3800
ff00
ff00
3800
3800
3800
3800
3800
3800
3800
3800
3800
1f00
0f00
ENDCHAR
STARTCHAR zacute
ENCODING 188
SWIDTH 573 0
DWIDTH 14 0
BBX 11 18 2 0
BITMAP
01c0
0180
0300
0600
0000
ffe0
ffe0
00c0
0180
0300
0700
0e00
1c00
3800
3000
6000
ffe0
ffe0
ENDCHAR
STARTCHAR doubleacute
ENCODING 189
SWIDTH 614 0
DWIDTH 15 0
BBX 7 4 5 14
BITMAP
36
2c
48
d0
ENDCHAR
STARTCHAR zcaron
ENCODING 190
SWIDTH 573 0
DWIDTH 14 0
BBX 11 18 2 0
BITMAP
30c0
1980
0f00
0f00
0000
ffe0
ffe0
00c0
0180
0300
0700
0e00
1c00
3800
3000
6000
ffe0
ffe0
ENDCHAR
STARTCHAR zabovedot
ENCODING 191
SWIDTH 573 0
DWIDTH 14 0
BBX 11 17 2 0
BITMAP
0600
0600
0600
0000
ffe0
ffe0
00c0
0180
0300
0700
0e00
1c00
3800
3000
6000
ffe0
ffe0
ENDCHAR
STARTCHAR Racute
ENCODING 192
SWIDTH 633 0
DWIDTH 16 0
BBX 13 23 2 0
BITMAP
01c0
0180
0300
0600
0000
ff00
ffc0
e1e0
e0e0
e0e0
e0e0
e0e0
e1c0
e380
fe00
ff00
e780
e380
e1c0
e1e0
e0f0
e070
e078
ENDCHAR
STARTCHAR Aacute
ENCODING 193
SWIDTH 690 0
DWIDTH 17 0
BBX 17 23 0 0
BITMAP
007000
006000
00c000
018000
000000
01c000
01e000
03e000
03e000
037000
067000
067800
0e3800
0c3800
0c1c00
181c00
1ffe00
3ffe00
300e00
300700
600700
600780
c00380
ENDCHAR
STARTCHAR Acircumflex
ENCODING 194
SWIDTH 690 0
DWIDTH 17 0
BBX 17 23 0 0
BITMAP
01e000
01e000
033000
061800
000000
01c000
01e000
03e000
03e000
037000
067000
067800
0e3800
0c3800
0c1c00
181c00
1ffe00
3ffe00
300e00
300700
600700
600780
c00380
ENDCHAR
STARTCHAR Abreve
ENCODING 195
SWIDTH 690 0
DWIDTH 17 0
BBX 17 23 0 0
BITMAP
061800
061800
03f000
01e000
000000
01c000
01e000
03e000
03e000
037000
067000
067800
0e3800
0c3800
0c1c00
181c00
1ffe00
3ffe00
300e00
300700
600700
600780
c00380
ENDCHAR
STARTCHAR Adiaeresis
ENCODING 196
SWIDTH 690 0
DWIDTH 17 0
BBX 17 21 0 0
BITMAP
063000
063000
000000
01c000
01e000
03e000
03e000
037000
067000
067800
0e3800
0c3800
0c1c00
181c00
1ffe00
3ffe00
300e00
300700
600700
600780
c00380
ENDCHAR
STARTCHAR Lacute
ENCODING 197
SWIDTH 533 0
DWIDTH 13 0
BBX 11 23 2 0
BITMAP
1c00
1800
3000
6000
0000
e000
e000
e000
e000
e000
e000
e000
e000
e000
e000
e000
e000
e000
e000
e000
e000
ffe0
ffe0
ENDCHAR
STARTCHAR Cacute
ENCODING 198
SWIDTH 692 0
DWIDTH 17 0
BBX 15 23 1 0
BITMAP
0038
0030
0060
00c0
0000
03fc
0ffe
3e06
3800
7000
7000
e000
e000
e000
e000
e000
e000
f000
7000
7802
3e0e
1ffe
07f8
ENDCHAR
STARTCHAR Ccedilla
ENCODING 199
SWIDTH 692 0
DWIDTH 17 0
BBX 15 23 1 -5
BITMAP
03fc
0ffe
3e06
3800
7000
7000
e000
e000
e000
e000
e000
e000
f000
7000
7802
3e0e
1ffe
07f8
0100
0100
00c0
00c0
0380
ENDCHAR
STARTCHAR Ccaron
ENCODING 200
SWIDTH 692 0
DWIDTH 17 0
BBX 15 23 1 0
BITMAP
0618
0330
01e0
01e0
0000
03fc
0ffe
3e06
3800
7000
7000
e000
e000
e000
e000
e000
e000
f000
7000
7802
3e0e
1ffe
07f8
ENDCHAR
STARTCHAR Eacute
ENCODING 201
SWIDTH 542 0
DWIDTH 14 0
BBX 11 23 2 0
BITMAP
0700
0600
0c00
1800
0000
ffc0
ffc0
e000
e000
e000
e000
e000
e000
ff80
ff80
e000
e000
e000
e000
e000
e000
ffe0
ffe0
ENDCHAR
STARTCHAR Eogonek
ENCODING 202
SWIDTH 542 0
DWIDTH 14 0
BBX 11 22 2 -4
BITMAP
ffc0
ffc0
e000
e000
e000
e000
e000
e000
ff80
ff80
e000
e000
e000
e000
e000
e000
ffe0
ffe0
0600
0c00
0c00
0700
ENDCHAR
STARTCHAR Ediaeresis
ENCODING 203
SWIDTH 542 0
DWIDTH 14 0
BBX 11 21 2 0
BITMAP
6300
6300
0000
ffc0
ffc0
e000
e000
e000
e000
e000
e000
ff80
ff80
e000
e000
e000
e000
e000
e000
ffe0
ffe0
ENDCHAR
STARTCHAR Ecaron
ENCODING 204
SWIDTH 542 0
DWIDTH 14 0
BBX 11 23 2 0
BITMAP
6180
3300
1e00
1e00
0000
ffc0
ffc0
e000
e000
e000
e000
e000
e000
ff80
ff80
e000
e000
e000
e000
e000
e000
ffe0
ffe0
ENDCHAR
STARTCHAR Iacute
ENCODING 205
SWIDTH 288 0
DWIDTH 7 0
BBX 5 23 2 0
BITMAP
38
30
60
c0
00
e0
e0
e0
e0
e0
e0
e0
e0
e0
e0
e0
e0
e0
e0
e0
e0
e0
e0
ENDCHAR
STARTCHAR Icircumflex
ENCODING 206
SWIDTH 288 0
DWIDTH 7 0
BBX 8 23 4 0
BITMAP
3c
3c
66
c3
00
38
38
38
38
38
38
38
38
38
38
38
38
38
38
38
38
38
38
ENDCHAR
STARTCHAR Dcaron
ENCODING 207
SWIDTH 749 0
DWIDTH 19 0
BBX 15 23 2 0
BITMAP
1860
0cc0
0780
0780
0000
ffc0
fff0
e078
e03c
e01c
e01e
e00e
e00e
e00e
e00e
e00e
e00e
e00c
e01c
e038
e078
ffe0
ff80
ENDCHAR
STARTCHAR Dstroke
ENCODING 208
SWIDTH 749 0
DWIDTH 19 0
BBX 18 18 0 0
BITMAP
1ff800
1ffe00
1c0f00
1c0780
1c0380
1c03c0
1c01c0
1c01c0
ffc1c0
ffc1c0
1c01c0
1c01c0
1c0180
1c0380
1c0700
1c0f00
1ffc00
1ff000
ENDCHAR
STARTCHAR Nacute
ENCODING 209
SWIDTH 741 0
DWIDTH 19 0
BBX 14 23 2 0
BITMAP
00e0
00c0
0180
0300
0000
e00c
f00c
f00c
f80c
fc0c
dc0c
de0c
cf0c
c70c
c38c
c3cc
c1ec
c0ec
c0fc
c07c
c03c
c03c
c01c
ENDCHAR
STARTCHAR Ncaron
ENCODING 210
SWIDTH 741 0
DWIDTH 19 0
BBX 14 23 2 0
BITMAP
1860
0cc0
0780
0780
0000
e00c
f00c
f00c
f80c
fc0c
dc0c
de0c
cf0c
c70c
c38c
c3cc
c1ec
c0ec
c0fc
c07c
c03c
c03c
c01c
ENDCHAR
STARTCHAR Oacute
ENCODING 211
SWIDTH 777 0
DWIDTH 19 0
BBX 17 23 1 0
BITMAP
007000
006000
00c000
018000
000000
07f000
1ffc00
3c1e00
780f00
700700
700700
e00380
e00380
e00380
e00380
e00380
e00380
700700
700700
780f00
3c1e00
1ffc00
07f000
ENDCHAR
STARTCHAR Ocircumflex
ENCODING 212
SWIDTH 777 0
DWIDTH 19 0
BBX 17 23 1 0
BITMAP
01e000
01e000
033000
061800
000000
07f000
1ffc00
3c1e00
780f00
700700
700700
e00380
e00380
e00380
e00380
e00380
e00380
700700
700700
780f00
3c1e00
1ffc00
07f000
ENDCHAR
STARTCHAR Odoubleacute
ENCODING 213
SWIDTH 777 0
DWIDTH 19 0
BBX 17 23 1 0
BITMAP
006c00
005800
009000
01a000
000000
07f000
1ffc00
3c1e00
780f00
700700
700700
e00380
e00380
e00380
e00380
e00380
e00380
700700
700700
780f00
3c1e00
1ffc00
07f000
ENDCHAR
STARTCHAR Odiaeresis
ENCODING 214
SWIDTH 777 0
DWIDTH 19 0
BBX 17 21 1 0
BITMAP
063000
063000
000000
07f000
1ffc00
3c1e00
780f00
700700
700700
e00380
e00380
e00380
e00380
e00380
e00380
700700
700700
780f00
3c1e00
1ffc00
07f000
ENDCHAR
STARTCHAR multiply
ENCODING 215
SWIDTH 633 0
DWIDTH 16 0
BBX 14 15 1 0
BITMAP
4008
e01c
7038
3870
1ce0
0cc0
0780
0300
0780
0cc0
1ce0
3870
7038
e01c
4008
ENDCHAR
STARTCHAR Rcaron
ENCODING 216
SWIDTH 633 0
DWIDTH 16 0
BBX 13 23 2 0
BITMAP
30c0
1980
0f00
0f00
0000
ff00
ffc0
e1e0
e0e0
e0e0
e0e0
e0e0
e1c0
e380
fe00
ff00
e780
e380
e1c0
e1e0
e0f0
e070
e078
ENDCHAR
STARTCHAR Uring
ENCODING 217
SWIDTH 693 0
DWIDTH 17 0
BBX 13 23 2 0
BITMAP
0300
0480
0480
0300
0000
e018
e018
e018
e018
e018
e018
e018
e018
e018
e018
e018
e018
e018
e018
f038
7870
3fe0
1fc0
ENDCHAR
STARTCHAR Uacute
ENCODING 218
SWIDTH 693 0
DWIDTH 17 0
BBX 13 23 2 0
BITMAP
01c0
0180
0300
0600
0000
e018
e018
e018
e018
e018
e018
e018
e018
e018
e018
e018
e018
e018
e018
f038
7870
3fe0
1fc0
ENDCHAR
STARTCHAR Udoubleacute
ENCODING 219
SWIDTH 693 0
DWIDTH 17 0
BBX 13 23 2 0
BITMAP
01b0
0160
0240
0680
0000
e018
e018
e018
e018
e018
e018
e018
e018
e018
e018
e018
e018
e018
e018
f038
7870
3fe0
1fc0
ENDCHAR
STARTCHAR Udiaeresis
ENCODING 220
SWIDTH 693 0
DWIDTH 17 0
BBX 13 21 2 0
BITMAP
18c0
18c0
0000
e018
e018
e018
e018
e018
e018
e018
e018
e018
e018
e018
e018
e018
e018
f038
7870
3fe0
1fc0
ENDCHAR
STARTCHAR Yacute
ENCODING 221
SWIDTH 623 0
DWIDTH 16 0
BBX 15 23 0 0
BITMAP
00e0
00c0
0180
0300
0000
e00e
700c
7818
3818
3c30
1c70
1e60
0fe0
07c0
0780
0380
0380
0380
0380
0380
0380
0380
0380
ENDCHAR
STARTCHAR Tcedilla
ENCODING 222
SWIDTH 633 0
DWIDTH 16 0
BBX 15 23 0 -5
BITMAP
fffe
fffe
0380
0380
0380
0380
0380
0380
0380
0380
0380
0380
0380
0380
0380
0380
0380
0380
0180
0100
00c0
00c0
0380
ENDCHAR
STARTCHAR ssharp
ENCODING 223
SWIDTH 598 0
DWIDTH 15 0
BBX 12 20 2 0
BITMAP
3e00
7f00
f780
e380
e380
e300
e300
e600
e600
e700
e780
e3c0
e3e0
e0f0
e070
e030
e030
e470
e7e0
e7c0
ENDCHAR
STARTCHAR racute
ENCODING 224
SWIDTH 409 0
DWIDTH 10 0
BBX 8 18 2 0
BITMAP
07
06
0c
18
00
e7
ef
f8
f0
e0
e0
e0
e0
e0
e0
e0
e0
e0
ENDCHAR
STARTCHAR aacute
ENCODING 225
SWIDTH 552 0
DWIDTH 14 0
BBX 12 18 1 0
BITMAP
0380
0300
0600
0c00
0000
1f80
7fc0
41c0
01c0
01c0
1fc0
7fc0
f1c0
e1c0
e1c0
e3c0
7ef0
3c70
ENDCHAR
STARTCHAR acircumflex
ENCODING 226
SWIDTH 552 0
DWIDTH 14 0
BBX 12 18 1 0
BITMAP
0f00
0f00
1980
30c0
0000
1f80
7fc0
41c0
01c0
01c0
1fc0
7fc0
f1c0
e1c0
e1c0
e3c0
7ef0
3c70
ENDCHAR
STARTCHAR abreve
ENCODING 227
SWIDTH 552 0
DWIDTH 14 0
BBX 12 18 1 0
BITMAP
30c0
30c0
1f80
0f00
0000
1f80
7fc0
41c0
01c0
01c0
1fc0
7fc0
f1c0
e1c0
e1c0
e3c0
7ef0
3c70
ENDCHAR
STARTCHAR adiaeresis
ENCODING 228
SWIDTH 552 0
DWIDTH 14 0
BBX 12 16 1 0
BITMAP
3180
3180
0000
1f80
7fc0
41c0
01c0
01c0
1fc0
7fc0
f1c0
e1c0
e1c0
e3c0
7ef0
3c70
ENDCHAR
STARTCHAR lacute
ENCODING 229
SWIDTH 289 0
DWIDTH 7 0
BBX 6 23 2 0
BITMAP
1c
18
30
60
00
e0
e0
e0
e0
e0
e0
e0
e0
e0
e0
e0
e0
e0
e0
e0
e0
e0
e0
ENDCHAR
STARTCHAR cacute
ENCODING 230
SWIDTH 518 0
DWIDTH 13 0
BBX 11 18 1 0
BITMAP
01c0
0180
0300
0600
0000
0fe0
3fe0
7820
7000
e000
e000
e000
e000
e000
7000
7820
3fe0
0fc0
ENDCHAR
STARTCHAR ccedilla
ENCODING 231
SWIDTH 518 0
DWIDTH 13 0
BBX 11 18 1 -5
BITMAP
0fe0
3fe0
7820
7000
e000
e000
e000
e000
e000
7000
7820
3fe0
0fc0
0400
0400
0300
0300
0e00
ENDCHAR
STARTCHAR ccaron
ENCODING 232
SWIDTH 518 0
DWIDTH 13 0
BBX 11 18 1 0
BITMAP
30c0
1980
0f00
0f00
0000
0fe0
3fe0
7820
7000
e000
e000
e000
e000
e000
7000
7820
3fe0
0fc0
ENDCHAR
STARTCHAR eacute
ENCODING 233
SWIDTH 557 0
DWIDTH 14 0
BBX 11 18 1 0
BITMAP
0380
0300
0600
0c00
0000
1f00
3f80
71c0
60e0
e0e0
ffe0
ffe0
e000
e000
7000
7820
3fe0
0fc0
ENDCHAR
STARTCHAR eogonek
ENCODING 234
SWIDTH 557 0
DWIDTH 14 0
BBX 11 17 1 -4
BITMAP
1f00
3f80
71c0
60e0
e0e0
ffe0
ffe0
e000
e000
7000
7820
3fe0
0fc0
0600
0c00
0c00
0700
ENDCHAR
STARTCHAR ediaeresis
ENCODING 235
SWIDTH 557 0
DWIDTH 14 0
BBX 11 16 1 0
BITMAP
3180
3180
0000
1f00
3f80
71c0
60e0
e0e0
ffe0
ffe0
e000
e000
7000
7820
3fe0
0fc0
ENDCHAR
STARTCHAR ecaron
ENCODING 236
SWIDTH 557 0
DWIDTH 14 0
BBX 11 18 1 0
BITMAP
30c0
1980
0f00
0f00
0000
1f00
3f80
71c0
60e0
e0e0
ffe0
ffe0
e000
e000
7000
7820
3fe0
0fc0
ENDCHAR
STARTCHAR iacute
ENCODING 237
SWIDTH 289 0
DWIDTH 7 0
BBX 5 18 2 0
BITMAP
38
30
60
c0
00
e0
e0
e0
e0
e0
e0
e0
e0
e0
e0
e0
e0
e0
ENDCHAR
STARTCHAR icircumflex
ENCODING 238
SWIDTH 289 0
DWIDTH 7 0
BBX 8 18 4 0
BITMAP
3c
3c
66
c3
00
38
38
38
38
38
38
38
38
38
38
38
38
38
ENDCHAR
STARTCHAR dcaron
ENCODING 239
SWIDTH 800 0
DWIDTH 20 0
BBX 16 20 1 0
BITMAP
0007
0007
0077
0073
0073
0076
0070
1e70
3ff0
78f0
7070
e070
e070
e070
e070
e070
f070
71f0
7f70
1e70
ENDCHAR
STARTCHAR dstroke
ENCODING 240
SWIDTH 760 0
DWIDTH 19 0
BBX 15 18 1 0
BITMAP
0070
0070
03fe
03fe
0070
1e70
3ff0
78f0
7070
e070
e070
e070
e070
e070
f070
71f0
7f70
1e70
ENDCHAR
STARTCHAR nacute
ENCODING 241
SWIDTH 620 0
DWIDTH 16 0
BBX 11 18 2 0
BITMAP
01c0
0180
0300
0600
0000
e780
efc0
f8e0
f0e0
e0e0
e0e0
e0e0
e0e0
e0e0
e0e0
e0e0
e0e0
e0e0
ENDCHAR
STARTCHAR ncaron
ENCODING 242
SWIDTH 620 0
DWIDTH 16 0
BBX 11 18 2 0
BITMAP
30c0
1980
0f00
0f00
0000
e780
efc0
f8e0
f0e0
e0e0
e0e0
e0e0
e0e0
e0e0
e0e0
e0e0
e0e0
e0e0
ENDCHAR
STARTCHAR oacute
ENCODING 243
SWIDTH 614 0
DWIDTH 15 0
BBX 13 18 1 0
BITMAP
01c0
0180
0300
0600
0000
0f80
3fe0
78f0
7070
e038
e038
e038
e038
e038
7070
78f0
3fe0
0f80
ENDCHAR
STARTCHAR ocircumflex
ENCODING 244
SWIDTH 614 0
DWIDTH 15 0
BBX 13 18 1 0
BITMAP
0780
0780
0cc0
1860
0000
0f80
3fe0
78f0
7070
e038
e038
e038
e038
e038
7070
78f0
3fe0
0f80
ENDCHAR
STARTCHAR odoubleacute
ENCODING 245
SWIDTH 614 0
DWIDTH 15 0
BBX 13 18 1 0
BITMAP
01b0
0160
0240
0680
0000
0f80
3fe0
78f0
7070
e038
e038
e038
e038
e038
7070
78f0
3fe0
0f80
ENDCHAR
STARTCHAR odiaeresis
ENCODING 246
SWIDTH 614 0
DWIDTH 15 0
BBX 13 16 1 0
BITMAP
18c0
18c0
0000
0f80
3fe0
78f0
7070
e038
e038
e038
e038
e038
7070
78f0
3fe0
0f80
ENDCHAR
STARTCHAR division
ENCODING 247
SWIDTH 633 0
DWIDTH 16 0
BBX 15 13 0 0
BITMAP
0380
0380
0380
0000
0000
0000
fffe
fffe
0000
0000
0380
0380
0380
ENDCHAR
STARTCHAR rcaron
ENCODING 248
SWIDTH 409 0
DWIDTH 10 0
BBX 8 18 2 0
BITMAP
c3
66
3c
3c
00
e7
ef
f8
f0
e0
e0
e0
e0
e0
e0
e0
e0
e0
ENDCHAR
STARTCHAR uring
ENCODING 249
SWIDTH 620 0
DWIDTH 16 0
BBX 11 18 2 0
BITMAP
0600
0900
0900
0600
0000
e0e0
e0e0
e0e0
e0e0
e0e0
e0e0
e0e0
e0e0
e0e0
e1e0
e3e0
7ee0
3ce0
ENDCHAR
STARTCHAR uacute
ENCODING 250
SWIDTH 620 0
DWIDTH 16 0
BBX 11 18 2 0
BITMAP
0380
0300
0600
0c00
0000
e0e0
e0e0
e0e0
e0e0
e0e0
e0e0
e0e0
e0e0
e0e0
e1e0
e3e0
7ee0
3ce0
ENDCHAR
STARTCHAR udoubleacute
ENCODING 251
SWIDTH 620 0
DWIDTH 16 0
BBX 11 18 2 0
BITMAP
0360
02c0
0480
0d00
0000
e0e0
e0e0
e0e0
e0e0
e0e0
e0e0
e0e0
e0e0
e0e0
e1e0
e3e0
7ee0
3ce0
ENDCHAR
STARTCHAR udiaeresis
ENCODING 252
SWIDTH 620 0
DWIDTH 16 0
BBX 11 16 2 0
BITMAP
3180
3180
0000
e0e0
e0e0
e0e0
e0e0
e0e0
e0e0
e0e0
e0e0
e0e0
e1e0
e3e0
7ee0
3ce0
ENDCHAR
STARTCHAR yacute
ENCODING 253
SWIDTH 568 0
DWIDTH 13 0
BBX 13 23 0 -5
BITMAP
01c0
0180
0300
0600
0000
e018
f030
7030
7070
7860
3860
3cc0
1cc0
1d80
1f80
0f80
0f00
0700
0600
0600
0e00
0c00
1c00
ENDCHAR
STARTCHAR tcedilla
ENCODING 254
SWIDTH 374 0
DWIDTH 9 0
BBX 8 21 1 -5
BITMAP
38
38
38
ff
ff
38
38
38
38
38
38
38
38
38
1f
0f
18
10
0c
0c
38
ENDCHAR
STARTCHAR abovedot
ENCODING 255
SWIDTH 614 0
DWIDTH 15 0
BBX 2 3 7 15
BITMAP
c0
c0
c0
ENDCHAR
ENDFONT
